<svg xmlns="http://www.w3.org/2000/svg" width="648.5" height="965.86" viewBox="0 0 648.5 965.86"><title>MCET_LOGO</title><path d="M644.1,369.9c-1.5-11.9-3.2-23.7-5.3-35.5a543,543,0,0,0-20.3-78.6,504.75,504.75,0,0,0-33.4-76.5c-16.6-30.6-36.3-59-60.1-84.4-27.4-29.4-58.7-53.6-95.3-70.7A248.75,248.75,0,0,0,336.7.4a237,237,0,0,0-79.9,9.3C218.3,20.9,184.3,40.5,153.7,66a355.06,355.06,0,0,0-50.9,53.1A421.75,421.75,0,0,0,59,187.4a495.23,495.23,0,0,0-25.6,58.8,558.15,558.15,0,0,0-18.4,62A550.94,550.94,0,0,0,2.2,389.9C.6,409.7-.3,429.4,0,450.8c.2,4.8.6,11.1.8,17.4A563.64,563.64,0,0,0,18.5,587.3,526.52,526.52,0,0,0,38,647.4a479.52,479.52,0,0,0,41.6,82.5,374.31,374.31,0,0,0,54.6,67.6c22.2,21.7,46.6,40.2,74.2,54.6a253.54,253.54,0,0,0,95.8,28.4c36.6,3.2,72.1-2.2,106.3-15,27.3-10.3,52.3-25,75.3-43,30.6-23.9,56-52.6,77.7-84.6C585,706.2,601.6,672,614.8,636A546,546,0,0,0,640,540.3a569.48,569.48,0,0,0,7.7-68.9A593.56,593.56,0,0,0,644.1,369.9ZM620.2,552.8c-3.5,16.1-7.5,32.2-12.5,48-3.8,12-8.1,23.8-12,35.8-6.7,20.3-16.2,39.3-26.2,58a377.78,377.78,0,0,1-46.7,68.2c-30.4,35.3-66.1,63.6-109.3,81.7a224.49,224.49,0,0,1-114.8,16.3c-44.4-5.3-83.9-22.9-119.4-49.5-42-31.5-73.7-71.6-98.7-117.4-29.7-54.4-47.3-112.6-56-173.7a566.12,566.12,0,0,1-4-124.1c4.3-54.7,15.7-107.9,36-159,17.7-44.5,41.2-85.6,72.7-121.9,31-35.6,67.4-64.1,111.7-81.5Q328.9-.8,416,36.3c40.3,17.1,73.7,43.5,102.7,75.8,25.9,28.9,46.4,61.5,63,96.5,22.1,46.7,36,95.7,43.8,146.7,2,13.3,3.4,26.8,4.4,40.2,1.1,14.3,1.4,28.6,1.6,40.8C631.5,476.8,628.4,515.2,620.2,552.8Z" transform="translate(0.06 -0.04)"/><path d="M631.5,436.2c.1,40.7-3.1,79-11.3,116.6-3.5,16.1-7.5,32.2-12.5,48-3.8,12-8.1,23.8-12,35.8-6.7,20.3-16.2,39.3-26.2,58a377.78,377.78,0,0,1-46.7,68.2c-30.4,35.3-66.1,63.6-109.3,81.7a224.49,224.49,0,0,1-114.8,16.3c-44.4-5.3-83.9-22.9-119.4-49.5-42-31.5-73.7-71.6-98.7-117.4-29.7-54.4-47.3-112.6-56-173.7a566.12,566.12,0,0,1-4-124.1c4.3-54.7,15.7-107.9,36-159,17.7-44.5,41.2-85.6,72.7-121.9,31-35.6,67.4-64.1,111.7-81.5Q328.9-.8,416,36.3c40.3,17.1,73.7,43.5,102.7,75.8,25.9,28.9,46.4,61.5,63,96.5,22.1,46.7,36,95.7,43.8,146.7,2,13.3,3.4,26.8,4.4,40.2C630.9,409.6,631.3,424,631.5,436.2Z" transform="translate(0.06 -0.04)" style="fill:#fff"/><path d="M133.9,960.2a17,17,0,0,1-.1,2.2c-.1.5-.2,1-.3,1.4a1.56,1.56,0,0,1-.6.8,1.08,1.08,0,0,1-.8.2H101.9a4.32,4.32,0,0,1-2.6-.9,3.28,3.28,0,0,1-1-2.8V910.9a3.48,3.48,0,0,1,1-2.8,3.92,3.92,0,0,1,2.6-.9h30a1.45,1.45,0,0,1,.7.2,1.37,1.37,0,0,1,.5.8,7.37,7.37,0,0,1,.4,1.4,16.2,16.2,0,0,1,.1,2.2,14.77,14.77,0,0,1-.1,2.1,5.73,5.73,0,0,1-.4,1.4,2.18,2.18,0,0,1-.5.8,1,1,0,0,1-.7.2H110.4v14.1h18.1a1.33,1.33,0,0,1,.8.3,1.56,1.56,0,0,1,.6.8,5.73,5.73,0,0,1,.4,1.4,30.84,30.84,0,0,1,0,4.3,5,5,0,0,1-.4,1.3,1.06,1.06,0,0,1-.6.7,1.88,1.88,0,0,1-.8.2H110.4v16.3H132a1.33,1.33,0,0,1,.8.3,1.56,1.56,0,0,1,.6.8,3.53,3.53,0,0,1,.3,1.4A11.24,11.24,0,0,1,133.9,960.2Z" transform="translate(0.06 -0.04)"/><path d="M179.8,947.5a15.92,15.92,0,0,1-1.8,8,16.46,16.46,0,0,1-4.8,5.7,20.94,20.94,0,0,1-7,3.5,31.33,31.33,0,0,1-8.6,1.2,37.85,37.85,0,0,1-5.8-.5,35.93,35.93,0,0,1-4.7-1.2,20.65,20.65,0,0,1-3.4-1.5,13.73,13.73,0,0,1-2-1.3,4.61,4.61,0,0,1-.9-1.7,16.28,16.28,0,0,1-.3-3.1,15.52,15.52,0,0,1,.1-2.3,4,4,0,0,1,.3-1.5,2.18,2.18,0,0,1,.5-.8,1.08,1.08,0,0,1,.8-.2,3.59,3.59,0,0,1,1.8.7c1,.6,2,1.1,3,1.6a23.17,23.17,0,0,0,4.4,1.6,20.52,20.52,0,0,0,6,.7,17.52,17.52,0,0,0,4-.5,8.47,8.47,0,0,0,3-1.5,7.1,7.1,0,0,0,1.9-2.3,6.61,6.61,0,0,0,.6-3.1,6,6,0,0,0-1.1-3.4,11.63,11.63,0,0,0-2.9-2.5,31.07,31.07,0,0,0-4.1-2c-1.5-.6-3.1-1.3-4.7-2a41.56,41.56,0,0,1-4.7-2.4,18.57,18.57,0,0,1-4.1-3.3,15.12,15.12,0,0,1-2.9-4.5,14.79,14.79,0,0,1-1.1-6.2,15.55,15.55,0,0,1,1.6-7.3,15.38,15.38,0,0,1,4.3-5.2,19,19,0,0,1,6.4-3.1,29,29,0,0,1,12.1-.7c1.4.2,2.7.5,4,.8a21.9,21.9,0,0,1,3.3,1.2,7.24,7.24,0,0,1,1.9,1.1,2.41,2.41,0,0,1,.6.8c.1.3.2.5.3.8s.1.9.2,1.3v1.9a15.48,15.48,0,0,1-.1,2.2,6.75,6.75,0,0,1-.2,1.4,1.37,1.37,0,0,1-.5.8,1.14,1.14,0,0,1-.8.3,4.42,4.42,0,0,1-1.6-.6c-.7-.4-1.7-.9-2.7-1.4a24.3,24.3,0,0,0-3.8-1.3,18.35,18.35,0,0,0-4.7-.6,10.6,10.6,0,0,0-3.5.5,8.53,8.53,0,0,0-2.5,1.3,4.26,4.26,0,0,0-1.5,2,6.87,6.87,0,0,0-.5,2.4,5.46,5.46,0,0,0,1.1,3.3,9.89,9.89,0,0,0,2.9,2.5,22.19,22.19,0,0,0,4.1,2c1.5.6,3.1,1.3,4.7,2a41.56,41.56,0,0,1,4.7,2.4,18.57,18.57,0,0,1,4.1,3.3,15.12,15.12,0,0,1,2.9,4.5A11.21,11.21,0,0,1,179.8,947.5Z" transform="translate(0.06 -0.04)"/><path d="M228.6,912a16.2,16.2,0,0,1-.1,2.2,8.33,8.33,0,0,1-.4,1.5,1.56,1.56,0,0,1-.6.8,1.14,1.14,0,0,1-.8.3h-15v46.4a1.14,1.14,0,0,1-.3.8,2.07,2.07,0,0,1-1,.6,10.62,10.62,0,0,1-1.9.4,25.32,25.32,0,0,1-2.9.1,27.19,27.19,0,0,1-3-.1,12.86,12.86,0,0,1-1.9-.4,2.07,2.07,0,0,1-1-.6,1.14,1.14,0,0,1-.3-.8V916.8h-15a1.14,1.14,0,0,1-.8-.3,2.41,2.41,0,0,1-.6-.8,8.33,8.33,0,0,1-.4-1.5,16.2,16.2,0,0,1-.1-2.2,17.7,17.7,0,0,1,.1-2.3,4.19,4.19,0,0,1,.4-1.5,1.56,1.56,0,0,1,.6-.8,1.14,1.14,0,0,1,.8-.3h42.3a1.33,1.33,0,0,1,.8.3,1.56,1.56,0,0,1,.6.8,8.33,8.33,0,0,1,.4,1.5A17,17,0,0,1,228.6,912Z" transform="translate(0.06 -0.04)"/><path d="M286,935.1a37.32,37.32,0,0,1-2.2,13.6,23.1,23.1,0,0,1-6.2,9.2,24.45,24.45,0,0,1-9.8,5.2,49.26,49.26,0,0,1-13.8,1.7H239.7a4.11,4.11,0,0,1-2.6-.9,3.61,3.61,0,0,1-1-2.8V910.9a3.61,3.61,0,0,1,1-2.8,3.92,3.92,0,0,1,2.6-.9h15.4a44.63,44.63,0,0,1,13.6,1.8,25.73,25.73,0,0,1,9.4,5.3,21.86,21.86,0,0,1,5.8,8.8A32.64,32.64,0,0,1,286,935.1Zm-12.6.4a27.83,27.83,0,0,0-1-7.6,16.28,16.28,0,0,0-3.2-6.1,14.41,14.41,0,0,0-5.7-4,23.53,23.53,0,0,0-9.1-1.5h-6.2v39.2h6.4a23.76,23.76,0,0,0,8.4-1.2,14,14,0,0,0,5.7-3.8,14.88,14.88,0,0,0,3.4-6.3,28.22,28.22,0,0,0,1.3-8.7Z" transform="translate(0.06 -0.04)"/><path d="M332.4,929.6a16.28,16.28,0,0,1-.3,3.1,5.64,5.64,0,0,1-1.1,2,3.6,3.6,0,0,1-2,1.1,11.23,11.23,0,0,1-3.2.3,17.33,17.33,0,0,1-3.2-.3,4.33,4.33,0,0,1-2-1.1,4.21,4.21,0,0,1-1-2,16.28,16.28,0,0,1-.3-3.1,17.33,17.33,0,0,1,.3-3.2,4.19,4.19,0,0,1,3.1-3.3,11.24,11.24,0,0,1,3.2-.4,11.7,11.7,0,0,1,3.2.4,4.15,4.15,0,0,1,2,1.2,5.29,5.29,0,0,1,1.1,2.1C332.3,927.4,332.4,928.5,332.4,929.6Zm0,29.1a15.53,15.53,0,0,1-.3,3.1,5.29,5.29,0,0,1-1.1,2.1,3.09,3.09,0,0,1-2,1.1,11.23,11.23,0,0,1-3.2.3,17.33,17.33,0,0,1-3.2-.3,4.07,4.07,0,0,1-3.1-3.2,16.28,16.28,0,0,1-.3-3.1,17.33,17.33,0,0,1,.3-3.2,4.12,4.12,0,0,1,1-2.1,3.6,3.6,0,0,1,2-1.1,11.23,11.23,0,0,1,3.2-.3,17.33,17.33,0,0,1,3.2.3,4.33,4.33,0,0,1,2,1.1,5.29,5.29,0,0,1,1.1,2.1A11.24,11.24,0,0,1,332.4,958.7Z" transform="translate(0.06 -0.04)"/><path d="M404.3,960.3a14.77,14.77,0,0,1-.1,2.1,7.37,7.37,0,0,1-.4,1.4,1.34,1.34,0,0,1-.6.7,1,1,0,0,1-.7.2H369.4a1.85,1.85,0,0,1-.7-.2,1.34,1.34,0,0,1-.6-.7,5.73,5.73,0,0,1-.4-1.4,14.77,14.77,0,0,1-.1-2.1,17,17,0,0,1,.1-2.2,5.73,5.73,0,0,1,.4-1.4,1.56,1.56,0,0,1,.6-.8,1.08,1.08,0,0,1,.7-.3h11.2V918.1l-9.7,5.1a5.78,5.78,0,0,1-1.7.6,1.13,1.13,0,0,1-1.1-.3,2.11,2.11,0,0,1-.5-1.3,11.54,11.54,0,0,1-.1-2.6v-1.8a5,5,0,0,1,.2-1.2,2.18,2.18,0,0,1,.5-.8c.3-.2.6-.5.9-.7l12.9-8,.6-.3c.3-.1.6-.1.9-.2s.9-.1,1.5-.1h2.3a21.85,21.85,0,0,1,2.8.1,9.85,9.85,0,0,1,1.7.2,1.61,1.61,0,0,1,.7.4,1.45,1.45,0,0,1,.2.7v47.6h9.8a1.33,1.33,0,0,1,.8.3,1.56,1.56,0,0,1,.6.8,5.73,5.73,0,0,1,.4,1.4Z" transform="translate(0.06 -0.04)"/><path d="M453.6,933.3a61.76,61.76,0,0,1-.4,7.3,37.18,37.18,0,0,1-1.4,7.4,27.33,27.33,0,0,1-2.9,6.8,19.91,19.91,0,0,1-4.7,5.7,21.72,21.72,0,0,1-7,3.8,29.82,29.82,0,0,1-9.8,1.4,26.93,26.93,0,0,1-4-.3c-1.2-.2-2.4-.4-3.6-.7-.9-.2-1.9-.5-2.8-.8a4.17,4.17,0,0,1-1.6-.9,3.22,3.22,0,0,1-.8-1.4,7.07,7.07,0,0,1-.2-2.5,16.27,16.27,0,0,1,.1-2.4,3.53,3.53,0,0,1,.3-1.4,1,1,0,0,1,.5-.6,1.85,1.85,0,0,1,.7-.2,4.53,4.53,0,0,1,1.6.3c.7.2,1.5.5,2.5.7s2.2.5,3.3.7a28.28,28.28,0,0,0,4.1.3,15,15,0,0,0,6.6-1.3,12.71,12.71,0,0,0,4.4-3.6,17.19,17.19,0,0,0,2.5-5.3,33,33,0,0,0,.9-6.3,23.89,23.89,0,0,1-5.2,2.2,23,23,0,0,1-6.9,1,22.13,22.13,0,0,1-8.1-1.2,13,13,0,0,1-5.4-3.5,14.8,14.8,0,0,1-3-5.5,26.22,26.22,0,0,1-1-7.3,24.38,24.38,0,0,1,1.3-8,17.37,17.37,0,0,1,4-6.3,18.82,18.82,0,0,1,6.6-4.1,28.63,28.63,0,0,1,16.4-.5,18.24,18.24,0,0,1,5.4,2.7,16.85,16.85,0,0,1,3.8,4.2,27,27,0,0,1,2.4,5.5,35.47,35.47,0,0,1,1.2,6.5C453.5,928.3,453.6,930.8,453.6,933.3Zm-12.1-1.6a42.48,42.48,0,0,0-.6-8,15.35,15.35,0,0,0-1.7-5.1,6.1,6.1,0,0,0-2.8-2.7,8.81,8.81,0,0,0-3.9-.8,9.86,9.86,0,0,0-3.8.7,7.55,7.55,0,0,0-2.6,2.1,8.76,8.76,0,0,0-1.6,3.2,13.31,13.31,0,0,0-.5,4,19.92,19.92,0,0,0,.4,4.2,6.9,6.9,0,0,0,1.4,3,6.42,6.42,0,0,0,2.5,1.8,11.48,11.48,0,0,0,3.7.6,17.26,17.26,0,0,0,9.5-3Z" transform="translate(0.06 -0.04)"/><path d="M502.3,933.3a61.76,61.76,0,0,1-.4,7.3,37.18,37.18,0,0,1-1.4,7.4,31.64,31.64,0,0,1-2.9,6.8,19.91,19.91,0,0,1-4.7,5.7,21.72,21.72,0,0,1-7,3.8,29.82,29.82,0,0,1-9.8,1.4,26.93,26.93,0,0,1-4-.3c-1.2-.2-2.4-.4-3.6-.7-.9-.2-1.9-.5-2.8-.8a5.56,5.56,0,0,1-1.7-.9,2.35,2.35,0,0,1-.7-1.4,7.07,7.07,0,0,1-.2-2.5,16.27,16.27,0,0,1,.1-2.4,3.53,3.53,0,0,1,.3-1.4,1,1,0,0,1,.5-.6,1.85,1.85,0,0,1,.7-.2,4.53,4.53,0,0,1,1.6.3c.7.2,1.5.5,2.5.7s2.2.5,3.3.7a28.28,28.28,0,0,0,4.1.3,15,15,0,0,0,6.6-1.3,12.71,12.71,0,0,0,4.4-3.6,17.19,17.19,0,0,0,2.5-5.3,33,33,0,0,0,.9-6.3,23.86,23.86,0,0,1-12,3.2,22.13,22.13,0,0,1-8.1-1.2,13,13,0,0,1-5.4-3.5,14.8,14.8,0,0,1-3-5.5,26.22,26.22,0,0,1-1-7.3,24.38,24.38,0,0,1,1.3-8,17.37,17.37,0,0,1,4-6.3,18.82,18.82,0,0,1,6.6-4.1,28,28,0,0,1,9.1-1.5,29.79,29.79,0,0,1,7.3.9,18.24,18.24,0,0,1,5.4,2.7,16.85,16.85,0,0,1,3.8,4.2,27,27,0,0,1,2.4,5.5,35.47,35.47,0,0,1,1.2,6.5C502.2,928.4,502.3,930.9,502.3,933.3Zm-12.1-1.6a42.48,42.48,0,0,0-.6-8,15.35,15.35,0,0,0-1.7-5.1,6.1,6.1,0,0,0-2.8-2.7,8.81,8.81,0,0,0-3.9-.8,9.86,9.86,0,0,0-3.8.7,7.55,7.55,0,0,0-2.6,2.1,8.59,8.59,0,0,0-1.5,3.2,13.31,13.31,0,0,0-.5,4,19.92,19.92,0,0,0,.4,4.2,6.9,6.9,0,0,0,1.4,3,6.42,6.42,0,0,0,2.5,1.8,11.48,11.48,0,0,0,3.7.6,17.46,17.46,0,0,0,9.4-3Z" transform="translate(0.06 -0.04)"/><path d="M551.7,949.3a16.85,16.85,0,0,1-1.4,7,14,14,0,0,1-4.2,5.2,20.16,20.16,0,0,1-6.8,3.2,40.82,40.82,0,0,1-18.4.1,16.89,16.89,0,0,1-6.4-2.9,11.9,11.9,0,0,1-3.9-4.7,15.6,15.6,0,0,1-1.3-6.4,14.35,14.35,0,0,1,.8-4.6,12.28,12.28,0,0,1,2.3-4,21.07,21.07,0,0,1,3.8-3.5,34,34,0,0,1,5.2-3.1,38.65,38.65,0,0,1-4.3-2.7,19.93,19.93,0,0,1-3.3-3.2,12.54,12.54,0,0,1-2-3.8,13.27,13.27,0,0,1-.7-4.5,15.14,15.14,0,0,1,1.3-6.3,14.09,14.09,0,0,1,3.8-4.9,17.11,17.11,0,0,1,6.3-3.2,29.12,29.12,0,0,1,8.8-1.1,30.44,30.44,0,0,1,8.5,1,15.84,15.84,0,0,1,5.8,2.9,11.69,11.69,0,0,1,3.4,4.5,14.19,14.19,0,0,1,1,5.8,11.41,11.41,0,0,1-.7,4.1,19.75,19.75,0,0,1-2,3.8,17.22,17.22,0,0,1-3.2,3.4,24.94,24.94,0,0,1-4.3,2.9,50.88,50.88,0,0,1,5,3,18,18,0,0,1,3.8,3.5,12.94,12.94,0,0,1,2.3,3.9A14.35,14.35,0,0,1,551.7,949.3Zm-12.1.8a7.68,7.68,0,0,0-2.4-5.6,13.86,13.86,0,0,0-3.1-2.3c-1.2-.7-2.7-1.5-4.3-2.3-1.3.7-2.6,1.4-3.8,2.2a14.93,14.93,0,0,0-2.7,2.3,8.69,8.69,0,0,0-1.6,2.6,7.1,7.1,0,0,0-.5,2.9,6.4,6.4,0,0,0,2.3,5.3c1.6,1.2,3.9,1.8,7,1.8s5.4-.6,6.8-1.9a5.62,5.62,0,0,0,2.3-5Zm-1.4-28.8a6.63,6.63,0,0,0-.5-2.8,5.11,5.11,0,0,0-1.5-2.1,6,6,0,0,0-2.5-1.3,10.2,10.2,0,0,0-3.5-.4,8.73,8.73,0,0,0-5.8,1.7,6,6,0,0,0-1.9,4.7,7.51,7.51,0,0,0,.5,2.6,11.35,11.35,0,0,0,1.5,2.3,17.09,17.09,0,0,0,2.6,2.1c1.1.7,2.4,1.4,3.8,2.2a17.17,17.17,0,0,0,5.2-4.1,6.31,6.31,0,0,0,2.1-4.9Z" transform="translate(0.06 -0.04)"/><path d="M94.8,610.7l-4.5-10-6.1,2.7,5,11.2-3.3,1.5-7-15.7,21.5-9.6,6.8,15.1-3.3,1.5-4.7-10.6-5.4,2.4,4.5,10Z" transform="translate(0.06 -0.04)"/><path d="M90.2,624.4,110,611.6l3.2,5-4.4,11.8a55.36,55.36,0,0,1-4.1,8.5l.1.1a71.4,71.4,0,0,1,7.7-5.5l7.3-4.8,2.5,3.9-19.8,12.8L99.6,639l4.7-12.1c1.2-3.1,2.6-6,4.1-9l-.1-.1c-2.6,1.9-5.1,3.6-8.1,5.5l-7.6,4.9Z" transform="translate(0.06 -0.04)"/><path d="M125.6,668.4a28.68,28.68,0,0,1-7.4-6c-3.3-3.7-5-7.2-5.1-10.7a10.79,10.79,0,0,1,3.7-8.4c5.2-4.7,13.2-3.7,19.7,3.5a21.37,21.37,0,0,1,4.3,6.7l-3.4,1.5a17.31,17.31,0,0,0-3.7-5.9c-4.2-4.7-9.4-5.6-13.2-2.2s-3.7,8.6.5,13.3a11.18,11.18,0,0,0,3.3,2.8l4.2-3.8-3.5-3.8,2.6-2.3,6.7,7.5Z" transform="translate(0.06 -0.04)"/><path d="M150.5,660.6l-15.9,17.5-3.7-3.3,15.9-17.4Z" transform="translate(0.06 -0.04)"/><path d="M141.1,684l14.2-18.8,4.8,3.6-.1,12.6a74.72,74.72,0,0,1-.9,9.4h.1a82.29,82.29,0,0,1,5.3-7.8l5.3-7,3.7,2.8-14.2,18.8-4.2-3.1.3-12.9c.1-3.3.4-6.6.8-9.8l-.1-.1c-1.8,2.7-3.5,5.1-5.7,7.9l-5.5,7.2Z" transform="translate(0.06 -0.04)"/><path d="M186,701.8l-9.5-5.6-3.4,5.8,10.5,6.3-1.9,3.1-14.8-8.8,12-20.3,14.3,8.5-1.9,3.1-10-5.9-3,5.1,9.5,5.6Z" transform="translate(0.06 -0.04)"/><path d="M207.1,712.3l-9.9-4.7-2.9,6.1,11,5.3-1.6,3.3-15.5-7.4,10.2-21.3,15,7.2-1.6,3.3-10.5-5-2.6,5.3,9.9,4.7Z" transform="translate(0.06 -0.04)"/><path d="M218.7,703.3a51.11,51.11,0,0,1,7.6,2.3c3.8,1.4,6.1,2.9,7.3,4.8a5.84,5.84,0,0,1,.5,5.3c-1.1,2.9-4.2,4-6.7,3.8v.1c1.5,1.3,2,3.2,1.9,5.5s-.3,4.7-.3,7l-4.8-1.8a22.56,22.56,0,0,1,.2-5.8c.3-3.2-.6-4.6-3.3-5.7l-2.7-1-3.4,9-4.6-1.7Zm1,11.4,3.2,1.2c3.2,1.2,5.8.6,6.6-1.6.9-2.5-.9-4.3-3.8-5.4a20.74,20.74,0,0,0-3.3-1Z" transform="translate(0.06 -0.04)"/><path d="M246.3,712.5l-6.8,22.6-4.8-1.4,6.8-22.6Z" transform="translate(0.06 -0.04)"/><path d="M247.3,737.4l5.2-23,5.8,1.3,5.1,11.5a71.62,71.62,0,0,1,3,8.9h.1a75.79,75.79,0,0,1,1.7-9.3l1.9-8.5,4.5,1-5.2,23-5.1-1.2-5.1-11.9a73.21,73.21,0,0,1-3.3-9.3h-.1c-.5,3.2-1.1,6.1-1.9,9.6l-2,8.8Z" transform="translate(0.06 -0.04)"/><path d="M301.4,745.5a31,31,0,0,1-9.6.3c-4.9-.6-8.5-2.2-10.9-4.8a10.56,10.56,0,0,1-2.7-8.8c.8-7,7.5-11.5,17.2-10.3A22.68,22.68,0,0,1,303,724l-1.6,3.4a17.36,17.36,0,0,0-6.7-2c-6.2-.8-10.7,2-11.4,7s2.9,8.9,9.1,9.7a10.86,10.86,0,0,0,4.4,0l.7-5.6-5.1-.6.4-3.5,10,1.2Z" transform="translate(0.06 -0.04)"/><path d="M337.1,747.5c-.7-.6-1.4-1.2-2.3-2a12.42,12.42,0,0,1-7.9,2.5c-6.2.1-9.2-3.2-9.2-6.5s2.2-5.6,5.2-7v-.1a6.69,6.69,0,0,1-2.2-4.5c0-2.9,2.5-6.2,7.6-6.3,3.9,0,6.9,2,6.9,5.3,0,2.5-1.7,4.5-5.6,6.2v.1c2.1,2,4.2,3.9,5.6,5.2a16.54,16.54,0,0,0,2.6-6.3l4.5-.1c-.8,3.8-2,6.8-4.3,9l4.8,4.5Zm-4.7-4.4c-1.5-1.3-4.2-3.7-7-6.4-1.3.8-2.9,2-2.9,4,0,2.4,2.1,4.2,5.2,4.1A7.33,7.33,0,0,0,332.4,743.1Zm-7.1-13.8a5.05,5.05,0,0,0,2.1,3.7c2.3-1.3,3.8-2.3,3.7-4a2.58,2.58,0,0,0-2.6-2.6h-.2a2.73,2.73,0,0,0-2.9,2.7c-.1.1-.1.1-.1.2Z" transform="translate(0.06 -0.04)"/><path d="M359.5,726.1l-8.3.9-.4-3.7,21.6-2.4.4,3.7-8.4.9,2.2,19.8-4.9.5Z" transform="translate(0.06 -0.04)"/><path d="M394.2,730.3l-10.8,2,1.3,6.6,12-2.3.7,3.6-16.9,3.2-4.4-23.2,16.3-3.1.7,3.6-11.4,2.2,1.1,5.8,10.8-2Z" transform="translate(0.06 -0.04)"/><path d="M424.3,732.3a22,22,0,0,1-7.1,3.3c-8.7,2.4-15.3-.7-17.2-7.6s2.6-13.7,11.3-16.1a18.08,18.08,0,0,1,7.3-.8l-.1,3.7a15.19,15.19,0,0,0-6,.6c-5.9,1.7-9,5.9-7.5,11.1,1.3,4.6,5.7,7.2,12,5.4a15.5,15.5,0,0,0,5.5-2.6Z" transform="translate(0.06 -0.04)"/><path d="M427.8,706.9l3.4,8.7,11.7-4.6-3.4-8.7,4.6-1.8,8.6,22-4.6,1.8-3.8-9.7-11.7,4.5,3.8,9.7-4.6,1.8-8.6-22Z" transform="translate(0.06 -0.04)"/><path d="M461.3,718.6l-11-20.9,5.3-2.8,11.4,5.5a66.33,66.33,0,0,1,8.1,4.8l.1-.1a82.14,82.14,0,0,1-4.8-8.1l-4.1-7.7,4.1-2.2,11,20.9-4.7,2.5-11.6-5.8a89.25,89.25,0,0,1-8.5-4.9l-.1.1c1.7,2.7,3.1,5.4,4.8,8.5l4.2,8Z" transform="translate(0.06 -0.04)"/><path d="M504,678.3c4.3,6.2,2.3,13.6-4.2,18.2s-13.9,3.5-17.8-2.1c-4.2-6-2.5-13.5,4.1-18.1C492.8,671.5,500,672.7,504,678.3Zm-17.9,12.9c2.7,3.8,7.5,5.2,11.8,2.2s4.7-7.9,1.8-12c-2.6-3.7-7.4-5.4-11.8-2.3s-4.5,8.2-1.8,12.1Z" transform="translate(0.06 -0.04)"/><path d="M501.4,665.2l3.7-3.3,13.2,14.8,8.9-7.9,2.5,2.8-12.6,11.3Z" transform="translate(0.06 -0.04)"/><path d="M542.2,639.9c5.7,5,5.5,12.6.2,18.6s-12.7,6.7-17.8,2.2c-5.5-4.8-5.6-12.5-.3-18.6S537,635.3,542.2,639.9ZM528,656.7a8.2,8.2,0,0,0,12-.7c3.4-3.9,2.7-8.8-1.1-12.1-3.4-3-8.5-3.5-12,.6S524.3,653.5,528,656.7Z" transform="translate(0.06 -0.04)"/><path d="M568,619.6a34.2,34.2,0,0,1-3.7,8.8c-2.6,4.2-5.5,6.8-8.9,7.9a10.8,10.8,0,0,1-9.1-1.2c-6-3.7-7.3-11.6-2.1-19.9a23,23,0,0,1,5.2-6l2.4,2.8a17.6,17.6,0,0,0-4.6,5.2c-3.3,5.3-2.8,10.6,1.6,13.2s9.3,1.1,12.6-4.2a14.44,14.44,0,0,0,1.8-4l-4.8-3-2.7,4.4-3-1.8,5.3-8.5Z" transform="translate(0.06 -0.04)"/><path d="M576.2,604.5l-9.2-3.8-16.1,3.2,2.2-5.3,7-.9c2-.2,3.4-.4,5.1-.6V597c-1-1.2-2-2.5-3.2-4l-4.4-5.6,2.2-5.3,8.9,14,9.3,3.8Z" transform="translate(0.06 -0.04)"/><path d="M126.7,606.2c3-1.2,6.5-2.6,9.7-3.8v-.1c-3.1.2-6.6.2-10,.2l-11.1-.1-1.2-3.3,8.6-6.7c2.7-2,5.5-4,8.2-5.7v-.1c-3.1,1-6.9,2.2-10.1,3.1l-9.3,2.7-1.4-4,22.8-6.4,2.1,5.9-7.8,6.3a63.27,63.27,0,0,1-7,4.9v.1c2.6-.2,5.8-.3,8.6-.3l10.1.3,2,5.8-21.7,9.1-1.5-4.2Z" transform="translate(0.06 -0.04)"/><path d="M148.3,615.9l-10.5,8c-3.9,3-4.5,6.2-2.5,8.9,2.2,2.9,5.4,3.1,9.3.1l10.5-8,2.7,3.6-10.3,7.9c-6.1,4.7-11.3,3.4-15.1-1.6-3.5-4.6-3.5-9.7,2.8-14.5l10.3-7.9Z" transform="translate(0.06 -0.04)"/><path d="M162.5,633.4a48.12,48.12,0,0,1,5.7,4.4c2.8,2.5,4.1,4.5,4.5,6.6a5.6,5.6,0,0,1-1.6,4.9,6.27,6.27,0,0,1-7.3,1.4l-.1.1c.8,1.6.5,3.6-.4,5.6-1.1,2-2.1,4.2-3,6.3l-3.4-3.1a27.89,27.89,0,0,1,2.4-5.3c1.5-2.8,1.3-4.3-.7-6.2l-1.9-1.7-6.4,7.2-3.3-3Zm-3.6,10.7,2.3,2c2.4,2.1,4.8,2.3,6.3.5,1.8-2,.9-4.2-1.2-6.1a15,15,0,0,0-2.5-1.9Z" transform="translate(0.06 -0.04)"/><path d="M169.4,663.3a13.84,13.84,0,0,0,4.3,5c2.4,1.6,4.5,1.5,5.5-.1,1-1.4.6-3-1.6-5.7-2.9-3.5-4-6.7-1.9-9.7,2.2-3.3,6.7-3.7,11.1-.7a15.18,15.18,0,0,1,4.5,4.6l-3,2.3a11.83,11.83,0,0,0-3.7-4c-2.4-1.7-4.3-1.1-5,0-1,1.5-.3,3,2,5.8,2.9,3.7,3.6,6.6,1.5,9.6s-6.3,4.3-11.9.6a15.9,15.9,0,0,1-4.9-5.4Z" transform="translate(0.06 -0.04)"/><path d="M201.2,661.4l-4.2,8.3,10.2,5.2,4.3-8.3,4,2.1-10.8,21-4-2.1,4.8-9.3-10.2-5.2-4.8,9.3-4-2.1,10.8-21Z" transform="translate(0.06 -0.04)"/><path d="M225.1,672.6l-9,21.8-4.1-1.7,9-21.8Z" transform="translate(0.06 -0.04)"/><path d="M230.4,675.2a58.75,58.75,0,0,1,7.5,1.9c4.7,1.5,7.6,3.5,9.3,6.2a10.33,10.33,0,0,1,1.1,9.2,12.13,12.13,0,0,1-6.5,7.5c-3.2,1.4-7.6,1.2-12.4-.4a66.22,66.22,0,0,1-6.2-2.4Zm-1.8,20.3c.9.4,1.8.7,2.7,1,6.3,2.1,10.8,0,12.5-5.3,1.6-4.9-.8-8.8-6.6-10.7a13.71,13.71,0,0,0-3.5-.8Z" transform="translate(0.06 -0.04)"/><path d="M257.6,700.3l-3.7,6.2-4.6-1,13.2-21.3,5.7,1.3,3.3,24.9-4.8-1.1-.9-7.2Zm8.1-1.6-.8-6.3c-.2-1.5-.3-3-.4-4.3h-.1c-.6,1.2-1.3,2.5-2,3.8l-3.3,5.4Z" transform="translate(0.06 -0.04)"/><path d="M280.8,688.3a40,40,0,0,1,6.9.4c3.5.5,5.4,1.1,6.9,2.4a4.9,4.9,0,0,1,2.1,4.8c-.3,2.1-1.9,3.9-4.7,4.5v.1a5.92,5.92,0,0,1,4.1,6.5,6.2,6.2,0,0,1-3.1,4.6c-2,1.2-5,1.5-9.5.9a38.19,38.19,0,0,1-5.7-1.1Zm1.8,20.4a23.81,23.81,0,0,0,2.6.5c2.9.4,5.7-.2,6.1-3.1.4-2.7-2.1-4.1-5.3-4.5l-2.5-.3Zm1.4-10.6,2.5.3c3.3.5,5.2-.7,5.5-2.6.3-2.3-1.5-3.4-4.3-3.8a26.42,26.42,0,0,0-2.9-.2Z" transform="translate(0.06 -0.04)"/><path d="M307.1,707.7l-2.6,6.7-4.7-.2,9.6-23.1,5.9.3,7.4,24-5-.3-2.1-7Zm7.8-3-1.8-6c-.4-1.5-.8-2.9-1.1-4.2h0c-.4,1.3-.9,2.7-1.4,4l-2.4,5.9Z" transform="translate(0.06 -0.04)"/><path d="M328.1,692.1a67,67,0,0,1,7.7-.8c5-.2,8.4.7,10.9,2.6a10.32,10.32,0,0,1,4.2,8.3,11.92,11.92,0,0,1-3.6,9.3c-2.5,2.4-6.7,3.7-11.8,3.9a48.47,48.47,0,0,1-6.6-.1Zm5.1,19.8a14.05,14.05,0,0,0,2.9,0c6.6-.2,10.1-3.7,10-9.3-.1-5.2-3.7-8-9.9-7.8a19.73,19.73,0,0,0-3.5.4Z" transform="translate(0.06 -0.04)"/><path d="M385.4,709.5a16.51,16.51,0,0,1-6.8,2.2c-8.1,1.2-13.8-2.8-14.8-9.9s3.7-13.2,11.9-14.4a16.82,16.82,0,0,1,6.7.2l-.5,3.6a12.81,12.81,0,0,0-5.5-.3c-5.5.8-8.7,4.5-7.9,9.9.7,4.8,4.5,7.9,10.3,7a13.9,13.9,0,0,0,5.3-1.8Z" transform="translate(0.06 -0.04)"/><path d="M411.3,692.1c1.8,7.4-2.3,13.3-9.4,15s-13-2.1-14.6-8.8c-1.7-7.1,2.2-13.3,9.2-15C403.9,681.6,409.7,685.4,411.3,692.1Zm-19.3,5c1.1,4.6,4.8,7.7,9.4,6.6s6.5-5.4,5.4-10.3c-1.1-4.4-4.7-7.8-9.4-6.6S390.8,692.4,392,697.1Z" transform="translate(0.06 -0.04)"/><path d="M413.1,679.3l4.3-1.5,6.4,18.8,10.3-3.5,1.2,3.6-14.5,4.9Z" transform="translate(0.06 -0.04)"/><path d="M431.6,672.8l4.1-1.8,7.9,18.2,9.9-4.3,1.5,3.5-14.1,6.1Z" transform="translate(0.06 -0.04)"/><path d="M468.5,669.3l-8.7,4.8L463,680l9.8-5.4,1.8,3.2-13.7,7.5-11.4-20.7,13.2-7.3,1.8,3.2-9.3,5.1,2.9,5.2,8.7-4.8Z" transform="translate(0.06 -0.04)"/><path d="M497.8,660.2a28,28,0,0,1-6.1,6.3c-3.6,2.7-7,3.8-10.4,3.3a11.57,11.57,0,0,1-7.7-4.8c-4.1-5.7-2.8-13.2,4.4-18.4a17.21,17.21,0,0,1,6.5-3.2l1.3,3.5a13.84,13.84,0,0,0-5.7,2.8c-4.6,3.3-5.8,8.2-2.8,12.3s7.9,4.8,12.5,1.4a9.35,9.35,0,0,0,2.8-2.8l-3.3-4.5-3.8,2.8-2.1-2.8,7.4-5.4Z" transform="translate(0.06 -0.04)"/><path d="M508.6,637.2l-7,7.1,4.8,4.8,7.9-7.9,2.6,2.6-11,11.1L489,638.1l10.7-10.7,2.6,2.6-7.5,7.5,4.2,4.2,7-7.1Z" transform="translate(0.06 -0.04)"/><path d="M530.5,600.6c6.7,3.6,8.4,10.6,5,17s-10.3,8.3-16.3,5.1c-6.4-3.5-8.5-10.5-5.1-16.9C517.7,599.1,524.5,597.3,530.5,600.6Zm-9.1,17.8c4.2,2.2,8.9,1.5,11.2-2.7s.3-8.5-4.1-10.9c-4-2.1-8.9-1.7-11.2,2.6S517.1,616.1,521.4,618.4Z" transform="translate(0.06 -0.04)"/><path d="M521.9,588.8l2.9-14.7,3.6.7-2,10.3,6.2,1.2,1.9-9.5,3.6.7-1.9,9.6,9.8,2-.9,4.4Z" transform="translate(0.06 -0.04)"/><path d="M294,835.3V752.5h63.9v82.8Z" transform="translate(0.06 -0.04)"/><path d="M446.5,512.4c-4.3,7-8.3,13.5-12.3,19.9-10.8,17.2-21.7,34.3-32.3,51.6-2,3.4-4.3,4.4-8,4.3-10.2-.2-20.3-.1-30.5-.1-1.7,0-3.3-.3-5.6.7v92.9H296.1v-93c-1.6-1.1-3.5-.6-5.3-.6-10.5,0-21-.1-31.5,0-2.8,0-4.6-.7-6.1-3.2q-17.85-27.6-35.9-55.1c-3.1-4.6-6.5-9-9.5-13.7-.7-1.1-1.9-2-.9-3.8Z" transform="translate(0.06 -0.04)"/><path d="M563.6,437c-4.7,6.9-8.7,12.7-12.6,18.6-1.4,2-3.4,1.7-5.4,1.7l-107,.9H426.4v12.6H536.2a30.31,30.31,0,0,1-4,7.4c-3.6,5.5-7.1,11.1-10.6,16.6-2,3.1-4.5,4.4-8.5,4.4-38.5-.2-77-.1-115.5-.1h-53c-1.1,0-2.3.3-3.7-.8v-104H604.5c-.5,2.2-2.2,3.3-3.4,4.7-5.7,6.5-11.7,12.8-17.1,19.5-2.5,3.1-5.2,3.9-9,3.9q-71.25-.15-142.5-.1h-6.2a90.19,90.19,0,0,0,0,14.7Z" transform="translate(0.06 -0.04)"/><path d="M205.9,437v20H316.7v41.4c-1.2,1.2-2.6.6-3.9.6q-81.15,0-162.4.1c-4.8,0-8.1-.9-11.8-5-18.4-20.3-37.4-40.1-56.2-60L48.2,397.8c-.9-.9-2.1-1.7-2.5-3.5H316.9V437Z" transform="translate(0.06 -0.04)"/><path d="M334.8,239.9c5.5-4.4,9.6-10,13.6-15.7,15.5-22.6,23.3-47.9,25.6-75.1,1.9-22.6-.8-44.8-5.6-66.9-.3-1.6-1.3-3.1.2-4.9a79.91,79.91,0,0,1,35.1,22.5c15.9,17,23.8,37.7,28.3,60.1a180.75,180.75,0,0,1,2.8,23.3,6.32,6.32,0,0,0,3.3,5.5A190.75,190.75,0,0,1,488.9,236c19.7,26,32.5,55.1,39.2,86.9a265.66,265.66,0,0,1,5.4,59c0,1.5.4,3-.8,4.7H471.9c-1.5-1.9-.9-3.8-.9-5.6-.4-30-2.1-59.9-8.8-89.3-3.8-16.8-8.7-33.1-19-47.3a56.88,56.88,0,0,0-9.3-9.7c-2.4-2.1-4.5-1.8-6.9.5-9.2,8.9-14.8,19.9-19.1,31.8-10.1,28.1-10.7,57.4-9.7,86.8.3,9.3,1.3,18.6,2,27.9.1,1.5.6,3-.1,4.4-1,1.2-2.4.9-3.7.9q-54.75,0-109.5.1c-3.2,0-4.6-.9-5.4-4.2-4.1-17.4-3-34.7.8-52,3.9-17.6,11.6-33.5,21.5-48.5,2.4-3.6,2.3-5.8-.5-9.1-8.8-10.2-17.2-20.7-25.9-31.3-6.3,3.8-11.2,8.7-16,13.8-21.1,22.4-32.4,49.2-37,79.2a206.42,206.42,0,0,0-1.5,45.8c.1,1.8.6,3.6-.3,5.9H116.7c-1.2-1.3-.8-2.7-.9-4a247.34,247.34,0,0,1,19.1-103.3c14.1-33.9,35.5-62.4,63.8-86.1,9.3-7.7,20-12.4,30.1-18.2,22.8-13.1,43.5-28.8,59.4-50,16.2-21.7,23.9-45.8,19.9-73.1-.5-3.2-1.9-6.3-1.2-10.1,4.8,2.5,7.8,6.5,10.9,10.2,14.2,16.7,23.8,35.5,26.6,57.5,2.7,21.8-1.6,42.3-10.9,62a182.29,182.29,0,0,1-21.5,34c-1.5,1.9-3,3.5-.9,6.1,7.5,9.1,14.8,18.3,22.2,27.5C333.8,239.4,334.3,239.7,334.8,239.9Z" transform="translate(0.06 -0.04)" style="fill:#ba2525"/></svg>